<?xml version="1.0" encoding="UTF-8" standalone="no"?>
<svg
   id="visual"
   viewBox="0 0 900 100"
   width="900"
   height="100"
   version="1.1"
   sodipodi:docname="adminlogintop.svg"
   inkscape:version="1.1.2 (0a00cf5339, 2022-02-04, custom)"
   xmlns:inkscape="http://www.inkscape.org/namespaces/inkscape"
   xmlns:sodipodi="http://sodipodi.sourceforge.net/DTD/sodipodi-0.dtd"
   xmlns="http://www.w3.org/2000/svg"
   xmlns:svg="http://www.w3.org/2000/svg">
  <defs
     id="defs13" />
  <sodipodi:namedview
     id="namedview11"
     pagecolor="#ffffff"
     bordercolor="#666666"
     borderopacity="1.0"
     inkscape:pageshadow="2"
     inkscape:pageopacity="0.0"
     inkscape:pagecheckerboard="0"
     showgrid="false"
     inkscape:zoom="1.3"
     inkscape:cx="449.61538"
     inkscape:cy="224.61538"
     inkscape:window-width="1920"
     inkscape:window-height="1050"
     inkscape:window-x="0"
     inkscape:window-y="30"
     inkscape:window-maximized="1"
     inkscape:current-layer="visual" />
  <rect
     x="0"
     y="0"
     width="900"
     height="100"
     fill="#ffffff"
     id="rect2"
     style="stroke-width:0.471404" />
  <path
     d="M 0,48 25,47 C 50,46 100,44 150,47.5 200,51 250,60 300,64 350,68 400,67 450,63.8 500,60.7 550,55.3 600,53 650,50.7 700,51.3 750,50.7 800,50 850,48 875,47 l 25,-1 V 0 H 875 C 850,0 800,0 750,0 700,0 650,0 600,0 550,0 500,0 450,0 400,0 350,0 300,0 250,0 200,0 150,0 100,0 50,0 25,0 H 0 Z"
     fill="#ffc697"
     id="path4" />
  <path
     d="M 0,39 25,38.5 C 50,38 100,37 150,38.5 200,40 250,44 300,44 350,44 400,40 450,38.5 500,37 550,38 600,40 c 50,2 100,5 150,3.7 50,-1.4 100,-7 125,-9.9 L 900,31 V 0 H 875 C 850,0 800,0 750,0 700,0 650,0 600,0 550,0 500,0 450,0 400,0 350,0 300,0 250,0 200,0 150,0 100,0 50,0 25,0 H 0 Z"
     fill="#ff9f54"
     id="path6" />
  <path
     d="M 0,27 25,25.5 C 50,24 100,21 150,21.2 c 50,0.1 100,3.5 150,3.5 50,0 100,-3.4 150,-2.7 50,0.7 100,5.3 150,6.8 50,1.5 100,-0.1 150,-0.6 50,-0.5 100,0.1 125,0.5 L 900,29 V 0 H 875 C 850,0 800,0 750,0 700,0 650,0 600,0 550,0 500,0 450,0 400,0 350,0 300,0 250,0 200,0 150,0 100,0 50,0 25,0 H 0 Z"
     fill="#ff7300"
     id="path8" />
</svg>
