<?xml version="1.0" encoding="UTF-8" standalone="no"?>
<svg
   id="visual"
   viewBox="0 0 900 100"
   width="900"
   height="100"
   version="1.1"
   sodipodi:docname="adminloginbottom.svg"
   inkscape:version="1.1.2 (0a00cf5339, 2022-02-04, custom)"
   xmlns:inkscape="http://www.inkscape.org/namespaces/inkscape"
   xmlns:sodipodi="http://sodipodi.sourceforge.net/DTD/sodipodi-0.dtd"
   xmlns="http://www.w3.org/2000/svg"
   xmlns:svg="http://www.w3.org/2000/svg">
  <defs
     id="defs13" />
  <sodipodi:namedview
     id="namedview11"
     pagecolor="#ffffff"
     bordercolor="#666666"
     borderopacity="1.0"
     inkscape:pageshadow="2"
     inkscape:pageopacity="0.0"
     inkscape:pagecheckerboard="0"
     showgrid="false"
     inkscape:zoom="1.3"
     inkscape:cx="449.61538"
     inkscape:cy="-125.38462"
     inkscape:window-width="1920"
     inkscape:window-height="1050"
     inkscape:window-x="0"
     inkscape:window-y="30"
     inkscape:window-maximized="1"
     inkscape:current-layer="visual" />
  <rect
     x="0"
     y="0"
     width="900"
     height="100"
     fill="#ffffff"
     id="rect2"
     style="stroke-width:0.471405" />
  <path
     d="m 0,47.329132 25,-3.2 c 25,-3.1 75,-9.5 125,-8.8 50,0.7 100,8.3 150,8.7 50,0.3 100,-6.7 150,-9.2 50,-2.5 100,-0.5 150,2.2 50,2.6 100,6 150,4.3 50,-1.7 100,-8.3 125,-11.7 l 25,-3.3 v 74.999998 h -25 c -25,0 -75,0 -125,0 -50,0 -100,0 -150,0 -50,0 -100,0 -150,0 -50,0 -100,0 -150,0 -50,0 -100,0 -150,0 -50,0 -100,0 -125,0 H 0 Z"
     fill="#ffc697"
     id="path4" />
  <path
     d="m 0,50.329132 25,3.2 c 25,3.1 75,9.5 125,11.6 50,2.2 100,0.2 150,-1.8 50,-2 100,-4 150,-5.8 50,-1.9 100,-3.5 150,-2.2 50,1.3 100,5.7 150,7.8 50,2.2 100,2.2 125,2.2 h 25 v 35.999998 h -25 c -25,0 -75,0 -125,0 -50,0 -100,0 -150,0 -50,0 -100,0 -150,0 -50,0 -100,0 -150,0 -50,0 -100,0 -150,0 -50,0 -100,0 -125,0 H 0 Z"
     fill="#ff9f54"
     id="path6" />
  <path
     d="m 0,85.329132 25,-0.5 c 25,-0.5 75,-1.5 125,-3.8 50,-2.4 100,-6 150,-6.2 50,-0.2 100,3.2 150,2.2 50,-1 100,-6.4 150,-6.2 50,0.2 100,5.8 150,8.7 50,2.8 100,2.8 125,2.8 h 25 v 18.999998 h -25 c -25,0 -75,0 -125,0 -50,0 -100,0 -150,0 -50,0 -100,0 -150,0 -50,0 -100,0 -150,0 -50,0 -100,0 -150,0 -50,0 -100,0 -125,0 H 0 Z"
     fill="#ff7300"
     id="path8" />
</svg>
