<?xml version="1.0" encoding="UTF-8" standalone="no"?>
<svg
   id="visual"
   viewBox="0 0 900 100"
   width="900"
   height="100"
   version="1.1"
   sodipodi:docname="cjenikselection.svg"
   inkscape:version="1.1.2 (0a00cf5339, 2022-02-04, custom)"
   xmlns:inkscape="http://www.inkscape.org/namespaces/inkscape"
   xmlns:sodipodi="http://sodipodi.sourceforge.net/DTD/sodipodi-0.dtd"
   xmlns="http://www.w3.org/2000/svg"
   xmlns:svg="http://www.w3.org/2000/svg">
  <defs
     id="defs13" />
  <sodipodi:namedview
     id="namedview11"
     pagecolor="#ffffff"
     bordercolor="#666666"
     borderopacity="1.0"
     inkscape:pageshadow="2"
     inkscape:pageopacity="0.0"
     inkscape:pagecheckerboard="0"
     showgrid="false"
     inkscape:zoom="1.3"
     inkscape:cx="449.61538"
     inkscape:cy="224.61538"
     inkscape:window-width="1920"
     inkscape:window-height="1050"
     inkscape:window-x="0"
     inkscape:window-y="30"
     inkscape:window-maximized="1"
     inkscape:current-layer="visual" />
  <rect
     x="0"
     y="0"
     width="900"
     height="100"
     fill="#ffffff"
     id="rect2"
     style="stroke-width:0.471405" />
  <path
     d="m 0,59 30,1 c 30,1 90,3 150,2.2 60,-0.9 120,-4.5 180,-5.2 60,-0.7 120,1.7 180,3.8 60,2.2 120,4.2 180,2.4 60,-1.9 120,-7.5 150,-10.4 L 900,50 V 0 H 870 C 840,0 780,0 720,0 660,0 600,0 540,0 480,0 420,0 360,0 300,0 240,0 180,0 120,0 60,0 30,0 H 0 Z"
     fill="#ffc697"
     id="path4" />
  <path
     d="M 0,45 30,43.5 C 60,42 120,39 180,36.7 c 60,-2.4 120,-4 180,-2 60,2 120,7.6 180,10.8 60,3.2 120,3.8 180,4 60,0.2 120,-0.2 150,-0.3 L 900,49 V 0 H 870 C 840,0 780,0 720,0 660,0 600,0 540,0 480,0 420,0 360,0 300,0 240,0 180,0 120,0 60,0 30,0 H 0 Z"
     fill="#ff9f54"
     id="path6" />
  <path
     d="m 0,18 30,1.3 c 30,1.4 90,4 150,6 60,2 120,3.4 180,1.4 60,-2 120,-7.4 180,-7.5 60,-0.2 120,4.8 180,6.8 60,2 120,1 150,0.5 L 900,26 V 0 H 870 C 840,0 780,0 720,0 660,0 600,0 540,0 480,0 420,0 360,0 300,0 240,0 180,0 120,0 60,0 30,0 H 0 Z"
     fill="#ff7300"
     id="path8" />
</svg>
