<?xml version="1.0" encoding="UTF-8" standalone="no"?>
<svg
   id="visual"
   viewBox="0 0 900 76"
   width="900"
   height="76"
   version="1.1"
   sodipodi:docname="indexselection.svg"
   inkscape:version="1.1.2 (0a00cf5339, 2022-02-04, custom)"
   xmlns:inkscape="http://www.inkscape.org/namespaces/inkscape"
   xmlns:sodipodi="http://sodipodi.sourceforge.net/DTD/sodipodi-0.dtd"
   xmlns="http://www.w3.org/2000/svg"
   xmlns:svg="http://www.w3.org/2000/svg">
  <defs
     id="defs13" />
  <sodipodi:namedview
     id="namedview11"
     pagecolor="#ffffff"
     bordercolor="#666666"
     borderopacity="1.0"
     inkscape:pageshadow="2"
     inkscape:pageopacity="0.0"
     inkscape:pagecheckerboard="0"
     showgrid="false"
     inkscape:zoom="1.3"
     inkscape:cx="449.61538"
     inkscape:cy="224.61538"
     inkscape:window-width="1920"
     inkscape:window-height="1050"
     inkscape:window-x="0"
     inkscape:window-y="30"
     inkscape:window-maximized="1"
     inkscape:current-layer="visual" />
  <path
     d="m 0,55 16.7,1.2 c 16.6,1.1 50,3.5 83.3,4.1 33.3,0.7 66.7,-0.3 100,-2.3 33.3,-2 66.7,-5 100,-5 33.3,0 66.7,3 100,1.8 33.3,-1.1 66.7,-6.5 100,-8.6 33.3,-2.2 66.7,-1.2 100,2.6 33.3,3.9 66.7,10.5 100,12.4 33.3,1.8 66.7,-1.2 100,0.5 33.3,1.6 66.7,8 83.3,11.1 L 900,76 V 0 H 883.3 C 866.7,0 833.3,0 800,0 766.7,0 733.3,0 700,0 666.7,0 633.3,0 600,0 566.7,0 533.3,0 500,0 466.7,0 433.3,0 400,0 366.7,0 333.3,0 300,0 266.7,0 233.3,0 200,0 166.7,0 133.3,0 100,0 66.7,0 33.3,0 16.7,0 H 0 Z"
     fill="#ffffff"
     id="path2" />
  <path
     d="m 0,55 16.7,0.7 c 16.6,0.6 50,2 83.3,-1.7 33.3,-3.7 66.7,-12.3 100,-15.2 33.3,-2.8 66.7,0.2 100,4.7 33.3,4.5 66.7,10.5 100,12.7 33.3,2.1 66.7,0.5 100,-0.4 C 533.3,55 566.7,55 600,52.2 633.3,49.3 666.7,43.7 700,40.3 733.3,37 766.7,36 800,38.5 833.3,41 866.7,47 883.3,50 L 900,53 V 0 H 883.3 C 866.7,0 833.3,0 800,0 766.7,0 733.3,0 700,0 666.7,0 633.3,0 600,0 566.7,0 533.3,0 500,0 466.7,0 433.3,0 400,0 366.7,0 333.3,0 300,0 266.7,0 233.3,0 200,0 166.7,0 133.3,0 100,0 66.7,0 33.3,0 16.7,0 H 0 Z"
     fill="#ffd1b0"
     id="path4" />
  <path
     d="m 0,33 16.7,0.2 c 16.6,0.1 50,0.5 83.3,0.5 33.3,0 66.7,-0.4 100,-2.4 33.3,-2 66.7,-5.6 100,-5.1 33.3,0.5 66.7,5.1 100,7 33.3,1.8 66.7,0.8 100,-0.9 33.3,-1.6 66.7,-4 100,-3.3 33.3,0.7 66.7,4.3 100,5.2 33.3,0.8 66.7,-1.2 100,-3.9 33.3,-2.6 66.7,-6 83.3,-7.6 L 900,21 V 0 H 883.3 C 866.7,0 833.3,0 800,0 766.7,0 733.3,0 700,0 666.7,0 633.3,0 600,0 566.7,0 533.3,0 500,0 466.7,0 433.3,0 400,0 366.7,0 333.3,0 300,0 266.7,0 233.3,0 200,0 166.7,0 133.3,0 100,0 66.7,0 33.3,0 16.7,0 H 0 Z"
     fill="#ffa463"
     id="path6" />
  <path
     d="m 0,15 16.7,-0.3 c 16.6,-0.4 50,-1 83.3,0.5 33.3,1.5 66.7,5.1 100,4.1 33.3,-1 66.7,-6.6 100,-6.5 33.3,0.2 66.7,6.2 100,9.2 33.3,3 66.7,3 100,2 33.3,-1 66.7,-3 100,-4.2 33.3,-1.1 66.7,-1.5 100,-0.3 33.3,1.2 66.7,3.8 100,2.3 33.3,-1.5 66.7,-7.1 83.3,-10 L 900,9 V 0 H 883.3 C 866.7,0 833.3,0 800,0 766.7,0 733.3,0 700,0 666.7,0 633.3,0 600,0 566.7,0 533.3,0 500,0 466.7,0 433.3,0 400,0 366.7,0 333.3,0 300,0 266.7,0 233.3,0 200,0 166.7,0 133.3,0 100,0 66.7,0 33.3,0 16.7,0 H 0 Z"
     fill="#ff7300"
     id="path8" />
</svg>
