<?xml version="1.0" encoding="UTF-8" standalone="no"?>
<svg
   id="visual"
   viewBox="0 0 900 75.343895"
   width="900"
   height="75.343895"
   version="1.1"
   sodipodi:docname="indexcontent.svg"
   inkscape:version="1.1.2 (0a00cf5339, 2022-02-04, custom)"
   xmlns:inkscape="http://www.inkscape.org/namespaces/inkscape"
   xmlns:sodipodi="http://sodipodi.sourceforge.net/DTD/sodipodi-0.dtd"
   xmlns="http://www.w3.org/2000/svg"
   xmlns:svg="http://www.w3.org/2000/svg">
  <defs
     id="defs13" />
  <sodipodi:namedview
     id="namedview11"
     pagecolor="#ffffff"
     bordercolor="#666666"
     borderopacity="1.0"
     inkscape:pageshadow="2"
     inkscape:pageopacity="0.0"
     inkscape:pagecheckerboard="0"
     showgrid="false"
     inkscape:zoom="1.3"
     inkscape:cx="449.61538"
     inkscape:cy="-150.76923"
     inkscape:window-width="1920"
     inkscape:window-height="1050"
     inkscape:window-x="0"
     inkscape:window-y="30"
     inkscape:window-maximized="1"
     inkscape:current-layer="visual" />
  <path
     d="m 0,7.3438957 16.7,-0.5 c 16.6,-0.5 50,-1.5 83.3,1.2 33.3,2.6000003 66.7,9.0000003 100,8.8000003 33.3,-0.2 66.7,-6.8 100,-9.7000003 33.3,-2.8 66.7,-1.8 100,-2.8 33.3,-1 66.7,-3.99999995 100,-4.29999995 33.3,-0.4 66.7,1.99999995 100,4.49999995 33.3,2.5 66.7,5.1 100,7.3000003 33.3,2.2 66.7,3.8 100,6.2 33.3,2.3 66.7,5.3 83.3,6.8 l 16.7,1.5 v 49 h -16.7 c -16.6,0 -50,0 -83.3,0 -33.3,0 -66.7,0 -100,0 -33.3,0 -66.7,0 -100,0 -33.3,0 -66.7,0 -100,0 -33.3,0 -66.7,0 -100,0 -33.3,0 -66.7,0 -100,0 -33.3,0 -66.7,0 -100,0 -33.3,0 -66.7,0 -100,0 -33.3,0 -66.7,0 -83.3,0 H 0 Z"
     fill="#ffffff"
     id="path2" />
  <path
     d="m 0,26.343896 16.7,0.7 c 16.6,0.6 50,2 83.3,1.3 33.3,-0.7 66.7,-3.3 100,-4.5 33.3,-1.2 66.7,-0.8 100,2.2 33.3,3 66.7,8.6 100,8.8 33.3,0.2 66.7,-5.2 100,-9.5 33.3,-4.3 66.7,-7.7 100,-6.5 33.3,1.2 66.7,6.8 100,10.8 33.3,4 66.7,6.4 100,6 33.3,-0.3 66.7,-3.3 83.3,-4.8 l 16.7,-1.5 v 46 h -16.7 c -16.6,0 -50,0 -83.3,0 -33.3,0 -66.7,0 -100,0 -33.3,0 -66.7,0 -100,0 -33.3,0 -66.7,0 -100,0 -33.3,0 -66.7,0 -100,0 -33.3,0 -66.7,0 -100,0 -33.3,0 -66.7,0 -100,0 -33.3,0 -66.7,0 -100,0 -33.3,0 -66.7,0 -83.3,0 H 0 Z"
     fill="#ffd1b0"
     id="path4" />
  <path
     d="m 0,38.343896 16.7,2.5 c 16.6,2.5 50,7.5 83.3,6.5 33.3,-1 66.7,-8 100,-10.8 33.3,-2.9 66.7,-1.5 100,-2 33.3,-0.5 66.7,-2.9 100,-2 33.3,0.8 66.7,4.8 100,7.6 33.3,2.9 66.7,4.5 100,4.7 33.3,0.2 66.7,-1.2 100,-1 33.3,0.2 66.7,1.8 100,0.3 33.3,-1.5 66.7,-6.1 83.3,-8.5 l 16.7,-2.3 v 42 h -16.7 c -16.6,0 -50,0 -83.3,0 -33.3,0 -66.7,0 -100,0 -33.3,0 -66.7,0 -100,0 -33.3,0 -66.7,0 -100,0 -33.3,0 -66.7,0 -100,0 -33.3,0 -66.7,0 -100,0 -33.3,0 -66.7,0 -100,0 -33.3,0 -66.7,0 -100,0 -33.3,0 -66.7,0 -83.3,0 H 0 Z"
     fill="#ffa463"
     id="path6" />
  <path
     d="m 0,53.343896 16.7,2 c 16.6,2 50,6 83.3,5.2 33.3,-0.9 66.7,-6.5 100,-9.4 33.3,-2.8 66.7,-2.8 100,-3 33.3,-0.1 66.7,-0.5 100,0.5 33.3,1 66.7,3.4 100,2.9 33.3,-0.5 66.7,-3.9 100,-3.2 33.3,0.7 66.7,5.3 100,7.7 33.3,2.3 66.7,2.3 100,2.1 33.3,-0.1 66.7,-0.5 83.3,-0.6 l 16.7,-0.2 v 18 h -16.7 c -16.6,0 -50,0 -83.3,0 -33.3,0 -66.7,0 -100,0 -33.3,0 -66.7,0 -100,0 -33.3,0 -66.7,0 -100,0 -33.3,0 -66.7,0 -100,0 -33.3,0 -66.7,0 -100,0 -33.3,0 -66.7,0 -100,0 -33.3,0 -66.7,0 -100,0 -33.3,0 -66.7,0 -83.3,0 H 0 Z"
     fill="#ff7300"
     id="path8" />
</svg>
