<?xml version="1.0" encoding="UTF-8" standalone="no"?>
<svg
   id="visual"
   viewBox="0 0 900 100"
   width="900"
   height="100"
   version="1.1"
   sodipodi:docname="productfooter.svg"
   inkscape:version="1.1.2 (0a00cf5339, 2022-02-04, custom)"
   xmlns:inkscape="http://www.inkscape.org/namespaces/inkscape"
   xmlns:sodipodi="http://sodipodi.sourceforge.net/DTD/sodipodi-0.dtd"
   xmlns="http://www.w3.org/2000/svg"
   xmlns:svg="http://www.w3.org/2000/svg">
  <defs
     id="defs13" />
  <sodipodi:namedview
     id="namedview11"
     pagecolor="#ffffff"
     bordercolor="#666666"
     borderopacity="1.0"
     inkscape:pageshadow="2"
     inkscape:pageopacity="0.0"
     inkscape:pagecheckerboard="0"
     showgrid="false"
     inkscape:zoom="1.3"
     inkscape:cx="449.61538"
     inkscape:cy="-125.38462"
     inkscape:window-width="1920"
     inkscape:window-height="1050"
     inkscape:window-x="0"
     inkscape:window-y="30"
     inkscape:window-maximized="1"
     inkscape:current-layer="visual" />
  <rect
     x="0"
     y="0"
     width="900"
     height="100"
     fill="#ffffff"
     id="rect2"
     style="stroke-width:0.471405" />
  <path
     d="m 0,48.072144 25,-3.2 c 25,-3.1 75,-9.5 125,-8.8 50,0.7 100,8.3 150,11.2 50,2.8 100,0.8 150,1.1 50,0.4 100,3 150,1.2 50,-1.8 100,-8.2 150,-11.7 50,-3.5 100,-4.1 125,-4.5 l 25,-0.3 v 67.999996 h -25 c -25,0 -75,0 -125,0 -50,0 -100,0 -150,0 -50,0 -100,0 -150,0 -50,0 -100,0 -150,0 -50,0 -100,0 -150,0 -50,0 -100,0 -125,0 H 0 Z"
     fill="#ffc697"
     id="path4" />
  <path
     d="m 0,57.072144 25,0.3 c 25,0.4 75,1 125,2.4 50,1.3 100,3.3 150,1.3 50,-2 100,-8 150,-7.3 50,0.6 100,8 150,8.8 50,0.8 100,-4.8 150,-8.7 50,-3.8 100,-5.8 125,-6.8 l 25,-1 v 54.999996 h -25 c -25,0 -75,0 -125,0 -50,0 -100,0 -150,0 -50,0 -100,0 -150,0 -50,0 -100,0 -150,0 -50,0 -100,0 -150,0 -50,0 -100,0 -125,0 H 0 Z"
     fill="#ff9f54"
     id="path6" />
  <path
     d="m 0,66.072144 25,2 c 25,2 75,6 125,9.5 50,3.5 100,6.5 150,4.7 50,-1.9 100,-8.5 150,-10.2 50,-1.7 100,1.7 150,4.8 50,3.2 100,6.2 150,5.7 50,-0.5 100,-4.5 125,-6.5 l 25,-2 v 26.999996 h -25 c -25,0 -75,0 -125,0 -50,0 -100,0 -150,0 -50,0 -100,0 -150,0 -50,0 -100,0 -150,0 -50,0 -100,0 -150,0 -50,0 -100,0 -125,0 H 0 Z"
     fill="#ff7300"
     id="path8" />
</svg>
