<?xml version="1.0" encoding="UTF-8" standalone="no"?>
<svg
   id="visual"
   viewBox="0 0 900 100"
   width="900"
   height="100"
   version="1.1"
   sodipodi:docname="productselection.svg"
   inkscape:version="1.1.2 (0a00cf5339, 2022-02-04, custom)"
   xmlns:inkscape="http://www.inkscape.org/namespaces/inkscape"
   xmlns:sodipodi="http://sodipodi.sourceforge.net/DTD/sodipodi-0.dtd"
   xmlns="http://www.w3.org/2000/svg"
   xmlns:svg="http://www.w3.org/2000/svg">
  <defs
     id="defs13" />
  <sodipodi:namedview
     id="namedview11"
     pagecolor="#ffffff"
     bordercolor="#666666"
     borderopacity="1.0"
     inkscape:pageshadow="2"
     inkscape:pageopacity="0.0"
     inkscape:pagecheckerboard="0"
     showgrid="false"
     inkscape:zoom="1.3"
     inkscape:cx="449.61538"
     inkscape:cy="224.61538"
     inkscape:window-width="1920"
     inkscape:window-height="1050"
     inkscape:window-x="0"
     inkscape:window-y="30"
     inkscape:window-maximized="1"
     inkscape:current-layer="visual" />
  <rect
     x="0"
     y="0"
     width="900"
     height="100"
     fill="#ffffff"
     id="rect2"
     style="stroke-width:0.471404" />
  <path
     d="m 0,44 25,2 c 25,2 75,6 125,6.5 C 200,53 250,50 300,48.5 350,47 400,47 450,47 c 50,0 100,0 150,3.5 50,3.5 100,10.5 150,11.7 50,1.1 100,-3.5 125,-5.9 L 900,54 V 0 H 875 C 850,0 800,0 750,0 700,0 650,0 600,0 550,0 500,0 450,0 400,0 350,0 300,0 250,0 200,0 150,0 100,0 50,0 25,0 H 0 Z"
     fill="#ffc697"
     id="path4" />
  <path
     d="m 0,51 25,-2 c 25,-2 75,-6 125,-9.5 50,-3.5 100,-6.5 150,-7 50,-0.5 100,1.5 150,2.3 50,0.9 100,0.5 150,3.4 50,2.8 100,8.8 150,10 50,1.1 100,-2.5 125,-4.4 L 900,42 V 0 H 875 C 850,0 800,0 750,0 700,0 650,0 600,0 550,0 500,0 450,0 400,0 350,0 300,0 250,0 200,0 150,0 100,0 50,0 25,0 H 0 Z"
     fill="#ff9f54"
     id="path6" />
  <path
     d="m 0,16 25,2.3 c 25,2.4 75,7 125,8.2 50,1.2 100,-1.2 150,-1.5 50,-0.3 100,1.3 150,0.7 50,-0.7 100,-3.7 150,-3.5 50,0.1 100,3.5 150,2 50,-1.5 100,-7.9 125,-11 L 900,10 V 0 H 875 C 850,0 800,0 750,0 700,0 650,0 600,0 550,0 500,0 450,0 400,0 350,0 300,0 250,0 200,0 150,0 100,0 50,0 25,0 H 0 Z"
     fill="#ff7300"
     id="path8" />
</svg>
