<?xml version="1.0" encoding="UTF-8" standalone="no"?>
<svg
   id="visual"
   viewBox="0 0 900 100"
   width="900"
   height="100"
   version="1.1"
   sodipodi:docname="webshopfooter.svg"
   inkscape:version="1.1.2 (0a00cf5339, 2022-02-04, custom)"
   xmlns:inkscape="http://www.inkscape.org/namespaces/inkscape"
   xmlns:sodipodi="http://sodipodi.sourceforge.net/DTD/sodipodi-0.dtd"
   xmlns="http://www.w3.org/2000/svg"
   xmlns:svg="http://www.w3.org/2000/svg">
  <defs
     id="defs13" />
  <sodipodi:namedview
     id="namedview11"
     pagecolor="#ffffff"
     bordercolor="#666666"
     borderopacity="1.0"
     inkscape:pageshadow="2"
     inkscape:pageopacity="0.0"
     inkscape:pagecheckerboard="0"
     showgrid="false"
     inkscape:zoom="1.3"
     inkscape:cx="449.61538"
     inkscape:cy="-124.61538"
     inkscape:window-width="1920"
     inkscape:window-height="1050"
     inkscape:window-x="0"
     inkscape:window-y="30"
     inkscape:window-maximized="1"
     inkscape:current-layer="visual" />
  <rect
     x="0"
     y="0"
     width="900"
     height="100"
     fill="#ffffff"
     id="rect2"
     style="stroke-width:0.471405" />
  <path
     d="m 0,51.640106 25,-3.2 c 25,-3.1 75,-9.5 125,-13.6 50,-4.2 100,-6.2 150,-4 50,2.1 100,8.5 150,13 50,4.5 100,7.1 150,5.8 50,-1.3 100,-6.7 150,-8.5 50,-1.8 100,-0.2 125,0.7 l 25,0.8 v 59.000004 h -25 c -25,0 -75,0 -125,0 -50,0 -100,0 -150,0 -50,0 -100,0 -150,0 -50,0 -100,0 -150,0 -50,0 -100,0 -150,0 -50,0 -100,0 -125,0 H 0 Z"
     fill="#ffc697"
     id="path4" />
  <path
     d="m 0,56.640106 25,1.7 c 25,1.6 75,5 125,7 50,2 100,2.6 150,0.8 50,-1.8 100,-6.2 150,-9 50,-2.8 100,-4.2 150,-3.2 50,1 100,4.4 150,7.5 50,3.2 100,6.2 125,7.7 l 25,1.5 v 31.000004 h -25 c -25,0 -75,0 -125,0 -50,0 -100,0 -150,0 -50,0 -100,0 -150,0 -50,0 -100,0 -150,0 -50,0 -100,0 -150,0 -50,0 -100,0 -125,0 H 0 Z"
     fill="#ff9f54"
     id="path6" />
  <path
     d="m 0,75.640106 25,-0.8 c 25,-0.9 75,-2.5 125,-2.5 50,0 100,1.6 150,3.6 50,2 100,4.4 150,3.5 50,-0.8 100,-4.8 150,-6.5 50,-1.6 100,-1 150,-1.5 50,-0.5 100,-2.1 125,-3 l 25,-0.8 v 34.000004 h -25 c -25,0 -75,0 -125,0 -50,0 -100,0 -150,0 -50,0 -100,0 -150,0 -50,0 -100,0 -150,0 -50,0 -100,0 -150,0 -50,0 -100,0 -125,0 H 0 Z"
     fill="#ff7300"
     id="path8" />
</svg>
