<?xml version="1.0" encoding="UTF-8" standalone="no"?>
<svg
   id="visual"
   viewBox="0 0 900 100"
   width="900"
   height="100"
   version="1.1"
   sodipodi:docname="webshopselection.svg"
   inkscape:version="1.1.2 (0a00cf5339, 2022-02-04, custom)"
   xmlns:inkscape="http://www.inkscape.org/namespaces/inkscape"
   xmlns:sodipodi="http://sodipodi.sourceforge.net/DTD/sodipodi-0.dtd"
   xmlns="http://www.w3.org/2000/svg"
   xmlns:svg="http://www.w3.org/2000/svg">
  <defs
     id="defs13" />
  <sodipodi:namedview
     id="namedview11"
     pagecolor="#ffffff"
     bordercolor="#666666"
     borderopacity="1.0"
     inkscape:pageshadow="2"
     inkscape:pageopacity="0.0"
     inkscape:pagecheckerboard="0"
     showgrid="false"
     inkscape:zoom="1.3"
     inkscape:cx="449.61538"
     inkscape:cy="224.61538"
     inkscape:window-width="1920"
     inkscape:window-height="1050"
     inkscape:window-x="0"
     inkscape:window-y="30"
     inkscape:window-maximized="1"
     inkscape:current-layer="visual" />
  <rect
     x="0"
     y="0"
     width="900"
     height="100"
     fill="#ffffff"
     id="rect2"
     style="stroke-width:0.471405" />
  <path
     d="m 0,64 25,0.5 C 50,65 100,66 150,64.8 200,63.7 250,60.3 300,59.7 350,59 400,61 450,58.5 500,56 550,49 600,46.2 c 50,-2.9 100,-1.5 150,1 50,2.5 100,6.1 125,8 L 900,57 V 0 H 875 C 850,0 800,0 750,0 700,0 650,0 600,0 550,0 500,0 450,0 400,0 350,0 300,0 250,0 200,0 150,0 100,0 50,0 25,0 H 0 Z"
     fill="#ffc697"
     id="path4" />
  <path
     d="m 0,35 25,-1.2 c 25,-1.1 75,-3.5 125,-2.5 50,1 100,5.4 150,6.4 50,1 100,-1.4 150,0.1 50,1.5 100,6.9 150,7.5 50,0.7 100,-3.3 150,-3.3 50,0 100,4 125,6 l 25,2 V 0 H 875 C 850,0 800,0 750,0 700,0 650,0 600,0 550,0 500,0 450,0 400,0 350,0 300,0 250,0 200,0 150,0 100,0 50,0 25,0 H 0 Z"
     fill="#ff9f54"
     id="path6" />
  <path
     d="m 0,17 25,2.3 c 25,2.4 75,7 125,8.4 50,1.3 100,-0.7 150,-2.7 50,-2 100,-4 150,-2.7 50,1.4 100,6 150,5.9 C 650,28 700,23 750,19.8 800,16.7 850,15.3 875,14.7 L 900,14 V 0 H 875 C 850,0 800,0 750,0 700,0 650,0 600,0 550,0 500,0 450,0 400,0 350,0 300,0 250,0 200,0 150,0 100,0 50,0 25,0 H 0 Z"
     fill="#ff7300"
     id="path8" />
</svg>
